<svg xmlns="http://www.w3.org/2000/svg" viewBox="0 0 512 512" fill="#0071ff"><path d="M256 60c11.046 0 20-8.954 20-20V20c0-11.046-8.954-20-20-20s-20 8.954-20 20v20c0 11.046 8.954 20 20 20zM130.667 78.948c3.705 6.416 10.427 10.002 17.338 10.002a19.927 19.927 0 0 0 9.983-2.683c9.565-5.523 12.842-17.756 7.319-27.321l-10.001-17.32c-5.523-9.566-17.755-12.842-27.321-7.319-9.565 5.523-12.842 17.756-7.319 27.321l10.001 17.32zM443.081 168.003c3.392 0 6.831-.864 9.981-2.683l17.32-10c9.566-5.522 12.843-17.755 7.32-27.32-5.523-9.567-17.755-12.845-27.32-7.32l-17.32 10c-9.566 5.522-12.843 17.755-7.32 27.32 3.705 6.417 10.427 10.003 17.339 10.003zM452 252c0 11.046 8.954 20 20 20h20c11.046 0 20-8.954 20-20s-8.954-20-20-20h-20c-11.046 0-20 8.954-20 20zM358.333 88.836a19.905 19.905 0 0 0 10.423 2.945c6.732 0 13.305-3.399 17.077-9.56l10.442-17.058c5.767-9.421 2.805-21.732-6.615-27.5-9.421-5.768-21.733-2.805-27.5 6.615l-10.442 17.058c-5.767 9.421-2.805 21.732 6.615 27.5zM483.289 452.152C474.714 441.888 461.852 436 448 436s-26.714 5.888-35.288 16.152C402.176 464.766 391.71 472 384 472c-7.71 0-18.176-7.234-28.711-19.848C346.714 441.888 333.852 436 320 436s-26.714 5.888-35.288 16.152C274.176 464.766 263.71 472 256 472c-7.71 0-18.176-7.234-28.711-19.848C218.714 441.888 205.852 436 192 436s-26.714 5.888-35.288 16.152C146.176 464.766 135.71 472 128 472s-18.176-7.234-28.711-19.848C90.714 441.888 77.852 436 64 436s-26.714 5.888-35.288 16.152C18.176 464.766 7.71 472 0 472v40c20.464 0 40.453-11.508 59.412-34.205C60.35 476.671 62.065 476 64 476s3.65.671 4.589 1.795C87.547 500.492 107.536 512 128 512s40.453-11.508 59.412-34.205c.938-1.124 2.653-1.795 4.588-1.795s3.65.671 4.589 1.795C215.547 500.492 235.536 512 256 512s40.453-11.508 59.412-34.205c.938-1.124 2.653-1.795 4.588-1.795s3.65.671 4.589 1.795C343.547 500.492 363.536 512 384 512s40.453-11.508 59.412-34.205c.938-1.124 2.653-1.795 4.588-1.795s3.65.671 4.589 1.795C471.547 500.492 491.536 512 512 512v-40c-7.71 0-18.176-7.234-28.711-19.848zM133.312 316.072c10.533-3.326 16.375-14.561 13.049-25.094C142.804 279.713 141 267.945 141 256c0-63.963 52.038-116 116-116s116 52.037 116 116c0 12.558-1.989 24.898-5.914 36.681-3.49 10.48 2.177 21.805 12.656 25.295a19.993 19.993 0 0 0 6.323 1.03c8.375-.001 16.181-5.304 18.972-13.687C410.321 289.455 413 272.861 413 256c0-86.019-69.981-156-156-156s-156 69.981-156 156c0 16.036 2.428 31.856 7.218 47.023 3.326 10.533 14.562 16.376 25.094 13.049zM483.289 352.152C474.714 341.888 461.852 336 448 336s-26.714 5.888-35.288 16.152C402.176 364.766 391.71 372 384 372c-7.71 0-18.176-7.234-28.711-19.848C346.714 341.888 333.852 336 320 336s-26.714 5.888-35.288 16.152C274.176 364.766 263.71 372 256 372c-7.71 0-18.176-7.234-28.711-19.848C218.714 341.888 205.852 336 192 336s-26.714 5.888-35.288 16.152C146.176 364.766 135.71 372 128 372s-18.176-7.234-28.711-19.848C90.714 341.888 77.852 336 64 336s-26.714 5.888-35.288 16.152C18.176 364.766 7.71 372 0 372v40c20.464 0 40.453-11.508 59.412-34.205C60.35 376.671 62.065 376 64 376s3.65.671 4.589 1.795C87.547 400.492 107.536 412 128 412s40.453-11.508 59.412-34.205c.938-1.124 2.653-1.795 4.588-1.795s3.65.671 4.589 1.795C215.547 400.492 235.536 412 256 412s40.453-11.508 59.412-34.205c.938-1.124 2.653-1.795 4.588-1.795s3.65.671 4.589 1.795C343.547 400.492 363.536 412 384 412s40.453-11.508 59.412-34.205c.938-1.124 2.653-1.795 4.588-1.795s3.65.671 4.589 1.795C471.547 400.492 491.536 412 512 412v-40c-7.71 0-18.176-7.234-28.711-19.848zM20 272h20c11.046 0 20-8.954 20-20s-8.954-20-20-20H20c-11.046 0-20 8.954-20 20s8.954 20 20 20zM44.163 150.069l17.069 10.424a19.902 19.902 0 0 0 10.405 2.935c6.739-.001 13.319-3.407 17.088-9.58 5.757-9.427 2.782-21.735-6.645-27.492l-17.069-10.424c-9.426-5.758-21.735-2.782-27.493 6.645-5.757 9.427-2.782 21.735 6.645 27.492z"/></svg>
