<svg width="233" height="233" viewBox="0 0 233 233" fill="none" xmlns="http://www.w3.org/2000/svg">
<g clip-path="url(#clip0_304_2)">
<path d="M116.034 0C52.053 0 0 52.053 0 116.034C0 180.015 52.053 232.068 116.033 232.068C180.014 232.068 232.067 180.015 232.067 116.034C232.067 52.053 180.015 0 116.034 0ZM106.701 9.034H124.701V27.034H106.701V9.034ZM197.07 116.034C197.07 160.718 160.717 197.07 116.034 197.07C71.351 197.07 34.999 160.717 34.999 116.034C34.999 71.351 71.352 34.998 116.034 34.998C160.717 34.998 197.07 71.351 197.07 116.034ZM46.738 34.01L59.466 46.738L46.738 59.466L34.01 46.738L46.738 34.01ZM26.701 125.034H8.701V107.034H26.701V125.034ZM46.738 198.059L34.01 185.331L46.738 172.603L59.466 185.331L46.738 198.059ZM124.701 223.034H106.701V205.034H124.701V223.034ZM185.33 198.059L172.602 185.331L185.33 172.603L198.058 185.331L185.33 198.059ZM185.33 59.466L172.602 46.738L185.33 34.01L198.058 46.738L185.33 59.466ZM204.701 125.034V107.034H222.701V125.034H204.701Z" fill="#6B7280"/>
<path d="M49.999 116.034C49.999 152.446 79.622 182.07 116.034 182.07C152.446 182.07 182.07 152.446 182.07 116.034C182.07 79.622 152.446 49.998 116.034 49.998C79.622 49.998 49.999 79.622 49.999 116.034ZM116.008 153.231L84.585 116.322L116.008 79.413L147.431 116.322L116.008 153.231Z" fill="#6B7280"/>
</g>
<defs>
<clipPath id="clip0_304_2">
<rect width="232.068" height="232.068" fill="white"/>
</clipPath>
</defs>
</svg>
