<svg id="Capa_1" enable-background="new 0 0 512 512" height="512" viewBox="0 0 512 512" width="512" xmlns="http://www.w3.org/2000/svg"><g><circle cx="256" cy="256" r="256"/><g><g fill="#fff"><path d="m280.917 256c0 61.006-49.118 110.461-109.709 110.461-60.59 0-109.708-49.455-109.708-110.461s49.118-110.461 109.709-110.461c60.59 0 109.708 49.455 109.708 110.461"/><path d="m401.27 256c0 57.427-24.559 103.98-54.854 103.98s-54.854-46.553-54.854-103.98 24.559-103.98 54.854-103.98 54.854 46.553 54.854 103.98"/><path d="m450.5 256c0 51.452-8.638 93.162-19.293 93.162s-19.292-41.71-19.292-93.162 8.636-93.162 19.292-93.162c10.655 0 19.293 41.71 19.293 93.162"/></g></g></g></svg>