<svg xmlns="http://www.w3.org/2000/svg" width="20" height="20" fill="none"><path fill="currentColor" d="m18.354 13.354.928.373a1 1 0 0 0-1.3-1.3l.372.927ZM6.646 1.646l.928.373a1 1 0 0 0-1.301-1.3l.373.927Zm11.335 10.78c-.92.37-1.925.574-2.981.574v2a9.974 9.974 0 0 0 3.727-.718l-.746-1.855ZM15 13a8 8 0 0 1-8-8H5c0 5.523 4.477 10 10 10v-2ZM7 5c0-1.055.204-2.061.574-2.981l-1.856-.746A9.975 9.975 0 0 0 5 5h2Zm-5 5a8.003 8.003 0 0 1 5.019-7.426L6.273.718A10.003 10.003 0 0 0 0 10h2Zm8 8a8 8 0 0 1-8-8H0c0 5.523 4.477 10 10 10v-2Zm7.426-5.018A8.003 8.003 0 0 1 10 18v2c4.207 0 7.805-2.598 9.282-6.273l-1.856-.745Z"/></svg>
